<?xml version="1.0" standalone="no"?>
<!DOCTYPE svg PUBLIC "-//W3C//DTD SVG 20010904//EN"
 "http://www.w3.org/TR/2001/REC-SVG-20010904/DTD/svg10.dtd">
<svg version="1.0" xmlns="http://www.w3.org/2000/svg"
 width="420.000000pt" height="420.000000pt" viewBox="0 0 420.000000 420.000000"
 preserveAspectRatio="xMidYMid meet">
<metadata>
Created by potrace 1.11, written by Peter Selinger 2001-2013
</metadata>
<g transform="translate(0.000000,420.000000) scale(0.100000,-0.100000)"
fill="#000000" stroke="none">
<path d="M0 2100 l0 -2100 2100 0 2100 0 0 2100 0 2100 -2100 0 -2100 0 0
-2100z m2458 1300 c52 -6 128 -19 171 -30 86 -22 219 -74 239 -94 10 -10 6
-52 -26 -227 l-38 -214 -89 0 -90 0 -23 145 c-26 165 -27 167 -125 199 -173
58 -358 45 -493 -34 -62 -36 -128 -115 -147 -175 -34 -105 -14 -271 46 -372
64 -110 156 -190 437 -379 201 -135 288 -210 356 -305 85 -118 121 -247 109
-388 -16 -193 -75 -327 -200 -451 -200 -200 -506 -279 -890 -230 -66 9 -157
25 -203 35 -83 20 -227 74 -237 90 -4 7 45 366 61 443 l6 27 99 0 c88 0 99 -2
99 -17 0 -10 9 -81 19 -157 17 -123 22 -142 43 -157 39 -30 172 -69 277 -81
85 -10 112 -9 188 5 171 33 307 126 369 252 27 55 29 69 29 170 0 107 -1 112
-38 189 -55 115 -147 203 -368 349 -192 127 -323 230 -381 299 -62 76 -116
166 -137 231 -92 281 -4 553 234 722 194 137 412 185 703 155z"/>
</g>
</svg>
