<svg style="display: none;" id="icons" version="1.1" xmlns="http://www.w3.org/2000/svg"><symbol id="icon-balloon" viewBox="0 0 558 558"><path d="M250.2 545.5h59l-.2 5.2-58.5.6-.3-5.8zm-8.6-86.4c-.4.1-.9.2-1.3.3.8-.2 1.6-.3 2.4-.5-.4 0-.7.1-1.1.2zm67.6 86.4l.3-5.8H250l.2 5.2 59 .6zm-.6 12.5l.3-6.6h-58.4l.3 6.6h57.8zm-65.4-99.2c-.1 0-.2 0-.3.1.1-.1.2-.1.3-.1zm7.2-307.7c1.3 96.5 12.5 203.3 22.7 304.2 1.9-.1 3.8-.1 5.8-.1 1.8 0 3.6 0 5.4.1 10.2-100.8 21.5-207.6 22.7-304.1C308.4 61.4 294.7 0 278.8 0c-15.9.1-29.5 61.4-28.4 151.1zm-107.8 28.5c6.1 97.1 60.7 176.6 110.1 277.5 3.8-.6 7.7-1 11.7-1.3-26.6-100.9-59.7-203.9-62.9-300.6-3-88 34.9-152.6 75-155.1l-4.1.1c-73.5 4.9-135.3 92.2-129.8 179.4zM278.7 0zm-2.3.1l2.2-.1c-.7 0-1.4 0-2.2.1zM93.5 179.6C86.2 93.6 167.2 7.5 264.3.6l8-.3c2.1-.1 4.1-.2 6.2-.2-117.7.1-219 89.8-210.3 179.5 9.5 97.8 95.2 177.8 172.1 279.8.4-.1.9-.2 1.3-.3.4-.1.9-.2 1.3-.3-66.8-101.7-141.1-181.6-149.4-279.2zM250 539.7l59.5-.6.2-5.2h-60l.3 5.8zm-7.7-76c1.4 2.1 2.9 4.3 4.3 6.4 9.2-1.5 20.3-3.1 31.9-3.1h.2c11.6 0 23.2 1.6 32.4 3.1 1.4-2.1 2.8-4.2 4.2-6.2-8.6-2.4-21.1-4.5-36.8-4.5-15.4 0-27.7 2-36.2 4.3zm113.9-308.5c-3.3 96.7-36.4 199.7-62.9 300.5 4 .3 8 .7 11.8 1.3 49.4-100.9 103.9-180.4 110-277.4C420.5 92.4 358.7 5.1 285.3.2l-4.1-.1c40.1 2.5 77.9 67.1 75 155.1zM278.9 0zm2.3.1c-.8 0-1.5-.1-2.3-.1l2.3.1zM279 0h-.1c2.2 0 4.3.1 6.4.2l8 .3c97.1 7 178.1 93 170.8 179-8.3 97.6-82.6 177.5-149.3 279.2 1 .2 2 .4 2.9.6 76.8-102 162.6-182 172.1-279.8C498.5 89.8 396.9 0 279 0zm3 470.8l.3.1-.3-.1zm-10.1 0h-.3.3zm-22.5 56.6H310l.2-5.4h-61.1l.3 5.4zm14.8-27.8l-.8-.6-9.4 20.9h4.5l7.7-12.2h1.1l-7 12.2h2.1l7-12.2H290l7 12.2h2.1l-7-12.2h1.1l7.7 12.2h4.5L296 499l-.7.5c4.8-9.2 9.7-18.5 13.7-28.1-4.3 6.5-8.1 13.2-11.9 20 .5-1.7 1-3.5 1.5-5.2 1.4-5.1 2.7-10.3 3.8-15.5-2 4.9-3.8 10-5.5 15-.8 2.2-1.5 4.5-2.2 6.8.1-2.3.2-4.6.2-6.8.1-5.2.1-10.4-.1-15.7-.8 5.2-1.3 10.4-1.7 15.6-.3 2.9-.5 5.8-.7 8.8-2.4-8.3-5-16.7-8.1-24.8 1.8 10.2 4.5 20.2 7.2 30.1h-5.1v-5.1h-5.2v5.1H278.3v-5.1H273v5.1h-5c2.7-10 5.3-19.9 7.2-30.1-3.1 8.2-5.6 16.5-8.1 24.8-.2-2.9-.4-5.8-.7-8.8-.5-5.2-1-10.4-1.7-15.6-.2 5.2-.2 10.4-.1 15.7 0 2.3.1 4.6.2 6.8-.7-2.3-1.4-4.5-2.2-6.8-1.7-5-3.5-10-5.5-15 1.1 5.2 2.4 10.4 3.8 15.5.5 1.8 1 3.5 1.5 5.2-3.8-6.8-7.6-13.5-11.9-20 4 9.7 8.9 19 13.7 28.2zm45.5 34.2l.3-5.8-60.6-.6.3 5.8 60 .6z"/></symbol><symbol id="icon-tripadvisor" viewBox="0 0 943 558"><path d="M422.3 0h90.5c36 4.9 72.3 8.1 107.9 15.1 54 10.6 105.7 27.4 144.4 70.5 3.7 4.1 12.4 4.9 18.9 4.9 39.5.4 79.1.2 118.7.2h24.2c-11.2 21.8-20.9 41.3-31.2 60.5-5.9 11.1-4.3 19.7 3.3 30.4 95.2 134.1 28.9 321.5-129.3 366.5-13.8 3.9-27.9 6.6-41.9 9.8h-45.2c-3.6-1.1-7.1-2.6-10.7-3.1-54.2-7.4-100-31.3-138-70.2-4.1-4.2-6.6-10.1-11.3-17.4-18.2 30.3-33 54.9-48.7 81-18.6-25.6-36-49.6-54-74.5-29.6 32.2-62 56.3-101.6 69.3-18.9 6.2-38.6 10-58 14.9h-45.2c-2.9-1-5.8-2.5-8.8-3-178.5-28.9-262-215.2-166-369.2 3.6-5.8 5.1-16 2.6-22.1-10.1-24.5-22.3-48.2-34-72.8 47 0 94.7.2 142.3-.2 6.3-.1 15-1 18.5-5.1 33.2-37.9 77.5-55.5 124.4-65.8C336.3 10.4 379.5 6.3 422.3 0zm281.5 509.6c106.1.3 192.6-85.5 192.3-190.8-.2-104.5-86.1-190.5-190.7-190.9-105.5-.4-192.4 86-192.3 191.1.2 104.9 85.7 190.4 190.7 190.6zm-465 0c105.1-.2 190.4-85.6 190.4-190.5 0-105.5-86.4-191.5-192.1-191.1-104.6.4-190.6 86.6-190.7 190.9.1 105.4 86.3 191 192.4 190.7z"/><path d="M818.8 319.3c-.1 64-51 114.6-115 114.3-62.8-.3-113.3-51-113.6-114-.3-63.8 50.8-115.3 114.3-115.3 63.8-.1 114.4 50.9 114.3 115zm-193.1-.3c0 43.5 35.7 79.3 78.9 79.4 42.8.1 79.4-36.5 79.4-79.3 0-43.1-35.8-78.8-79.3-78.8-43.9-.1-79.1 34.9-79 78.7zM123.8 319.8c-.3-64.3 49.9-115.3 113.8-115.6 63.5-.3 114.9 51.2 114.9 114.9 0 62.9-50.6 114-113.2 114.5-64.2.5-115.2-49.8-115.5-113.8zm193.1-.7c.1-43.7-35.1-78.9-78.8-78.9-43.6 0-79.4 35.4-79.5 78.7-.1 42.9 36.4 79.4 79.2 79.5 43.3-.1 79.1-35.9 79.1-79.3z"/><path d="M743.3 319c0 22.1-17.7 39.6-39.6 39-21.2-.5-37.9-17.7-37.9-39 0-21.8 18.3-39.9 39.7-39.3 21 .7 37.8 18.1 37.8 39.3zM238 279.7c21.6.1 39.2 18.3 38.7 40.3-.5 21.3-17.6 38.1-38.8 38-22-.1-39-17.7-38.6-40 .5-21.1 17.9-38.3 38.7-38.3z"/></symbol><symbol id="icon-facebook" viewBox="0 0 558 558"><path d="M279 0C125.2 0 0 125.2 0 279c0 153.9 125.2 279 279 279 153.9 0 279-125.2 279-279S432.8 0 279 0zm69.4 288.8H303v161.8h-67.3V288.8h-32v-57.2h32v-37c0-26.5 12.6-67.9 67.9-67.9l49.8.2v55.5h-36.2c-5.9 0-14.3 3-14.3 15.6v33.6h51.3l-5.8 57.2z"/></symbol><symbol id="icon-instagram" viewBox="0 0 558 558"><path d="M223.1 279c.1-12.1 3.9-23.4 10.6-32.5 10.1-14.1 26.7-23.3 45.3-23.3 18.7 0 35.2 9.2 45.3 23.3 6.6 9.2 10.5 20.4 10.5 32.5 0 30.8-25.1 55.9-55.9 55.9-30.7-.1-55.8-25.1-55.8-55.9zM401 210.7v-53.8h-7l-46.8.2.2 53.8 53.6-.2zM558 279c0 153.9-125.2 279-279 279S0 432.8 0 279 125.2 0 279 0s279 125.2 279 279zm-120.3-97.3c0-33.9-27.5-61.3-61.3-61.3H181.6c-33.8 0-61.3 27.5-61.3 61.3v194.7c0 33.8 27.5 61.3 61.3 61.3h194.7c33.9 0 61.3-27.5 61.3-61.3V181.7zM365.8 279c0 47.8-38.9 86.8-86.8 86.8-47.8 0-86.7-39-86.7-86.8 0-11.5 2.3-22.5 6.4-32.5h-47.4v129.9c0 16.8 13.6 30.4 30.4 30.4h194.7c16.8 0 30.4-13.6 30.4-30.4v-130h-47.4c4 10.1 6.4 21.1 6.4 32.6z"/></symbol><symbol id="icon-menu" viewBox="0 0 24 24"><path d="M24 3c0-.6-.4-1-1-1H1c-.6 0-1 .4-1 1v2c0 .6.4 1 1 1h22c.6 0 1-.4 1-1V3zm0 8c0-.6-.4-1-1-1H1c-.6 0-1 .4-1 1v2c0 .6.4 1 1 1h22c.6 0 1-.4 1-1v-2zm0 8c0-.6-.4-1-1-1H1c-.6 0-1 .4-1 1v2c0 .6.4 1 1 1h22c.6 0 1-.4 1-1v-2z"></path></symbol></svg>
