<svg width="214" height="44" viewBox="0 0 214 44" xmlns="http://www.w3.org/2000/svg"><path d="M213.2 21.7c.1 0 .1 0 .2.1s.1.1.1.2 0 .2-.1.3c-.2.6-.4 1.1-.6 1.6s-.4.9-.6 1.3-.5.8-.7 1.2l-.9 1.2s-.7.7-1.1 1-.8.5-1.3.7-.9.3-1.5.3c-.4 0-.8-.1-1.3-.2s-.9-.4-1.3-.7c-.4-.4-.7-.8-1-1.5-.3-.6-.4-1.4-.4-2.4 0-.4 0-.9.1-1.4s.2-.9.4-1.3.3-.8.5-1.2.4-.7.6-1c.3-.5.7-.9 1.1-1.3s.8-.8 1.2-1.1.8-.6 1.1-.7.7-.3 1-.3c.5 0 .9.2 1.3.6s.6.9.6 1.6c0 .6-.2 1.3-.5 1.9s-.7 1.3-1.2 1.9l-1.5 1.8c-.5.5-1 1-1.5 1.3.2.6.5 1 .9 1.3s.7.4 1.1.4c.6 0 1.1-.2 1.6-.6s.9-.9 1.3-1.4.7-1.1 1-1.7.5-1.1.8-1.6c.1-.2.2-.3.2-.4s.2.1.4.1zm-7.7.9c0 .8.1 1.5.2 2.1.3-.3.5-.6.8-.9s.5-.7.7-1c.2-.4.4-.7.5-1.1s.2-.7.2-1.1c0-.5-.1-.9-.3-1.2s-.4-.4-.7-.4c-.1 0-.3.1-.4.2s-.3.4-.5.7-.3.7-.4 1.2-.1.9-.1 1.5zm-1.6-.9c.1 0 .1 0 .2.1s.1.1.1.2 0 .2-.1.3c-.3.9-.6 1.7-.8 2.4-.3.7-.5 1.3-.8 1.9-.4.8-.7 1.5-1.1 1.9-.3.4-.7.7-1.2.9-.1 0-.2.1-.4.1h-.4c-.3 0-.7-.1-1.1-.2s-.7-.4-1-.8-.6-.9-.8-1.6-.3-1.5-.3-2.6v-.6c-.4 1-.8 1.8-1.2 2.5s-.8 1.3-1.2 1.7c.2.4.4.9.6 1.5l.3 1.8c.1.6.1 1.1.1 1.5v.8c0 1.3-.1 2.4-.2 3.3s-.3 1.7-.6 2.3-.6 1.2-.9 1.6-.7.8-1.2 1.1c-.3.2-.6.4-.9.5s-.6.2-.9.2-.6-.1-1-.3c-.3-.2-.7-.5-.9-.9-.3-.4-.5-.9-.7-1.5s-.3-1.3-.3-2 0-1.6.1-2.6.1-2.1.2-3.3.2-2.5.3-3.8.2-2.7.4-4c.1-1.3.3-2.6.4-3.9s.3-2.5.4-3.6.2-2.1.4-2.9.2-1.6.3-2.1c.2-1.3.4-2.5.7-3.3.2-.9.4-1.6.7-2.1.2-.6.4-1 .7-1.3.2-.3.5-.5.7-.7s.5-.3.7-.4.5-.2.7-.3c.4-.2.7-.4 1-.5s.5-.2.8-.2c.2 0 .3 0 .5.1s.3.2.5.4c.1.2.3.5.3.9.1.4.1.8.1 1.4 0 .8-.1 1.8-.2 2.9l-.6 3.3c-.3 1.2-.6 2.3-1.1 3.5-.4 1.2-.9 2.3-1.3 3.4-.5 1.1-.9 2.2-1.4 3.1s-.9 1.9-1.3 2.7c-.1 1.5-.3 3.1-.4 4.7-.1 1.7-.2 3.4-.3 5.3 0 .6-.1 1.1-.1 1.6v1.5c0 .8.1 1.4.2 1.9s.3.7.7.7.6-.2.9-.5c.2-.4.4-.8.5-1.4s.2-1.3.3-2 .1-1.5.1-2.2c0-.9 0-1.7-.1-2.5s-.2-1.6-.4-2.2c0-.1-.1-.3-.1-.4-.1-.1-.1-.2-.2-.3s-.1-.2-.2-.3-.1-.2-.1-.3c0-.2.1-.4.2-.5.1-.2.3-.2.6-.2.2-.1.3-.1.5-.3.2-.1.4-.3.7-.5.3-.3.7-.9 1.1-1.6s.8-1.6 1.3-2.7c.1-.2.2-.3.3-.4 0-.5.1-.9.1-1.4.1-.5.1-.9.2-1.4.2-.4.4-.8.7-1.1l.9-.9c.3-.2.6-.4.8-.6s.4-.2.5-.2.1.1.1.2v.5c0 .3-.1.6-.1 1.1s-.1 1.1-.1 1.8-.1 1.6-.1 2.6c0 .6 0 1.1.1 1.6s.2.9.3 1.3.3.7.5.9.4.3.7.3c.2 0 .4-.1.6-.3s.4-.5.6-.9.4-.9.6-1.4.4-1.1.7-1.7c-.4-.5-.2-.6.1-.6zM192.5 11c-.1.9-.3 2.1-.5 3.9-.2 1.7-.5 3.8-.7 6.3.5-1.3 1.1-2.7 1.6-4.3s1-3.3 1.3-5c.3-1.5.5-2.7.6-3.7s.2-1.7.2-2.2v-.9c0-.2-.1-.4-.1-.5-.1-.1-.1-.2-.2-.2s-.1-.1-.2-.1-.3.1-.4.4-.3.6-.4.9-.3.8-.4 1.3l-.3 1.5c-.1.5-.2 1-.3 1.4-.1.5-.2.9-.2 1.2zm9.5-.1c0 .1.1.2.1.3 0 .3-.2.5-.5.8-.3.2-.5.5-.7.7l-.6.6c-.2.2-.3.3-.5.4-.1.1-.3.2-.4.2h-.2c-.1 0-.1-.1-.2-.2-.2-.3-.3-.6-.5-.9s-.3-.6-.4-.9-.2-.5-.3-.8c-.1-.2-.1-.4-.1-.4 0-.1.1-.3.2-.5.1-.1.2-.2.4-.5.2-.2.4-.5.6-.7s.4-.5.6-.7l.4-.4c.2-.2.3-.3.4-.3s.2.1.3.3c0 .1.1.3.3.6.1.3.3.6.4 1s.3.7.5 1c.1.1.2.3.2.4zm-20.8 16.8c.3 0 .6-.1.8-.3s.4-.5.6-.8.3-.7.4-1.2.2-.9.2-1.4c-.4-.3-.8-.6-1.1-1-.4-.4-.7-.9-1-1.5-.2-.4-.3-.7-.4-1.1s-.1-.7-.1-1.1.1-.8.2-1.2.3-.7.5-1 .5-.5.9-.7c.3-.2.7-.2 1.2-.2.6 0 1 .1 1.4.4s.6.6.9 1c.2.4.4.9.4 1.4.1.5.1.9.1 1.4 0 .6 0 1.1-.1 1.7l-.3 1.8c.5 0 .9-.2 1.3-.4s.7-.6 1-1.2c.2-.3.3-.5.5-.5.1 0 .2 0 .2.1.1.1.1.1.1.3 0 .1 0 .2-.1.3-.3.8-.7 1.3-1.3 1.8-.6.4-1.3.7-2 .7-.2.6-.5 1.3-.8 1.8-.3.6-.7 1.1-1.1 1.5s-.9.8-1.5 1-1.2.4-1.8.4c-.4 0-.8-.1-1.2-.2s-.9-.3-1.3-.7-.7-.8-1-1.4-.4-1.4-.4-2.4c0-.8.2-1.7.5-2.6s.8-1.8 1.6-2.8c.3-.3.5-.6.8-.7.2-.1.4-.2.6-.2.3 0 .4.2.4.5 0 .2-.1.4-.2.6s-.2.5-.3.9-.2.8-.3 1.3-.2 1.1-.2 1.8c0 1.3.2 2.3.6 3.1.2.5.7.8 1.3.8zm2.2-5.8c0-1.3-.1-2.3-.4-2.9s-.5-.8-.8-.7c-.1.1-.2.2-.2.4v.5c0 .3 0 .6.1.9l.3.9c.1.3.3.6.5.9s.4.5.6.8v-.4c-.1-.1-.1-.2-.1-.4zm-6.9-17.6c.1.3.1.5.1.6s0 .3-.1.3-.1.2-.2.4c-.1.1-.1.2-.2.3s-.2.1-.3.2-.2.1-.3.2-.2.2-.2.3c-.1.2-.2.4-.4.5s-.4.2-.6.2-.4-.1-.6-.2-.4-.3-.7-.4c-.2-.2-.5-.4-.8-.6s-.7-.4-1.1-.6-1-.3-1.6-.4-1.3-.2-2.1-.2c-1.2 0-2.3.2-3.2.5s-1.8.9-2.6 1.8c-.5.6-.9 1.2-1.2 1.8-.2.6-.4 1.2-.4 1.7s.1.9.3 1.3.5.8.9 1.1.9.6 1.4.9 1.1.5 1.7.8 1.3.5 1.9.8c.7.3 1.3.5 2 .8 1 .4 1.9.9 2.6 1.4.8.5 1.4 1.1 2 1.7s1 1.3 1.2 2.1.4 1.5.4 2.4c0 1.1-.2 2.1-.6 3.1s-1 1.8-1.8 2.5-1.8 1.3-3 1.7-2.6.6-4.2.6c-1.1 0-2.1-.1-3-.4s-1.6-.6-2.2-1-1-.8-1.4-1.1c-.3-.4-.6-.7-.6-.9-.1-.1-.1-.3-.1-.4v-.2c0-.1 0-.3.1-.3.1-.1.2-.2.3-.4.1-.1.1-.2.2-.2s.2-.1.3-.1.2-.1.3-.2.2-.2.2-.3c.2-.4.5-.7.9-.7.2 0 .4.1.7.2s.5.3.7.6c.3.2.6.5.9.7.3.3.7.5 1.2.7s1 .4 1.6.6 1.3.2 2.1.2c1 0 1.8-.1 2.5-.3s1.2-.5 1.7-.8c.4-.3.7-.8.9-1.2s.3-1 .3-1.5c0-.7-.1-1.3-.4-1.8s-.6-.9-1.1-1.3-1-.7-1.6-1-1.3-.6-2.1-.9l-2.4-.9c-.9-.3-1.7-.7-2.6-1.1-.7-.3-1.3-.7-1.9-1.1s-1.1-.8-1.5-1.3-.7-1-1-1.7c-.2-.6-.3-1.3-.3-2.1 0-.9.1-1.9.4-2.8s.7-1.8 1.2-2.6 1.1-1.5 1.8-2.2 1.5-1.3 2.4-1.8 1.8-.9 2.8-1.1c1-.3 2-.4 3-.4 1.1 0 2.2.1 3 .4.9.3 1.6.6 2.2 1s1.1.8 1.4 1.1c.5.5.7.8.8 1zm-27.4 17.4c.1 0 .1 0 .2.1s.1.1.1.2 0 .2-.1.3c-.4 1.2-.8 2.2-1.1 3.1s-.7 1.6-1 2.2-.7 1-1.1 1.3-.8.5-1.2.5c-.6 0-1-.1-1.3-.4s-.6-.6-.8-1-.3-.9-.4-1.4-.1-1-.1-1.5v-3.6c0-.2 0-.4-.1-.5s-.2-.2-.3-.2-.2.1-.3.2-.1.2-.2.4-.2.4-.3.9c-.1.4-.3.9-.5 1.4s-.4 1.1-.5 1.6c-.2.6-.4 1.1-.5 1.5-.2.6-.4 1.1-.6 1.4s-.4.6-.5.8c-.2.2-.3.3-.5.4s-.3.1-.5.1c-.1 0-.3 0-.4-.1s-.3-.1-.4-.3-.2-.3-.3-.5-.1-.5-.1-.8v-6.4c0-.4 0-.7-.1-.8 0-.2-.1-.2-.2-.2s-.3.1-.4.4-.3.7-.5 1.3c-.1.2-.2.3-.2.4s-.2.1-.3.1-.1 0-.2-.1-.1-.2-.1-.3 0-.2.1-.4.1-.4.2-.7c.1-.2.2-.5.3-.8s.2-.5.3-.7c.1-.3.3-.6.4-.9s.3-.6.6-.9c.2-.3.4-.5.7-.7.2-.2.5-.3.8-.3.4 0 .7.2 1 .6s.5 1.1.5 1.9v5s.1-.1.2-.4c.1-.2.2-.6.4-.9.1-.4.3-.8.5-1.3l.6-1.5.6-1.5c.2-.5.4-.9.7-1.2.2-.4.5-.7.8-.9s.6-.3.9-.3c.5 0 .8.3 1 .8.2.6.3 1.3.3 2.3v4.1c0 .5 0 1 .1 1.3 0 .3.1.6.2.8s.2.3.3.4.2.1.3.1c.3 0 .5-.1.7-.4.2-.2.4-.6.6-1s.4-.9.6-1.4.4-1.1.7-1.7c0 .2.1.1.4.1zm-13.9.6c-.4 1.2-.8 2.2-1.1 3.1s-.7 1.6-1 2.2-.7 1.1-1.1 1.4-.8.5-1.3.5c-.3 0-.6-.1-.8-.3s-.4-.4-.5-.7-.3-.5-.3-.8-.1-.4-.1-.5v-.1c0-.1 0-.1-.1-.1s0 0-.1.1c0 0 0 .1-.1.1 0 .1-.1.3-.3.5-.2.3-.4.5-.6.8-.3.3-.6.5-.9.7s-.7.3-1.1.3c-.3 0-.6-.1-.9-.3s-.5-.5-.7-.8-.4-.7-.5-1.2-.2-1-.2-1.5c0-1.1.2-2.2.5-3.2.4-1 1-2 1.8-3 .4-.5.8-.9 1.3-1.3.4-.4.9-.7 1.3-1s.8-.5 1.2-.6.7-.2 1-.2c.2 0 .4 0 .6.1s.3.2.5.3c.1.2.3.4.3.6s.1.6.1.9c0 .4-.1.8-.2 1.3s-.3.9-.6 1.3-.5.7-.9 1-.8.4-1.2.4c-.3 0-.4-.1-.4-.3 0-.1 0-.4.1-.7s.1-.6.1-1v-.4c0-.1 0-.3-.1-.5s-.1-.3-.2-.4-.2-.2-.4-.2c-.4 0-.7.2-.9.5-.3.3-.5.7-.7 1.2s-.3 1-.4 1.5-.1 1-.1 1.3c0 .5 0 .9.1 1.3s.2.6.3.8.3.3.5.4.3.1.5.1c.4 0 .8-.1 1.2-.4s.6-.6.9-1c.2-.4.5-.7.6-1 .2-.3.3-.4.4-.4s.2.1.2.4c.1.6.2 1.1.3 1.5s.2.7.3.9.2.4.3.5.2.1.3.1c.2 0 .4-.1.6-.3s.4-.5.6-.9.4-.9.6-1.4.4-1.1.7-1.7c.1-.3.3-.5.5-.5s.3.1.3.4c-.2 0-.2.1-.2.2zm-10.4 0c-.3.8-.7 1.4-1.2 1.8s-1.1.6-1.8.6c-.3 0-.7 0-1-.1-.3.7-.7 1.4-1.1 2s-.9 1.1-1.4 1.6c-.5.4-.9.8-1.4 1s-.9.4-1.3.4c-.2 0-.3 0-.5-.1-.1-.1-.3-.2-.4-.4-.2-.2-.4-.6-.6-1s-.5-1-.7-1.6c-.2-.7-.4-1.4-.6-2.3s-.2-1.9-.2-3.1c0-.5 0-1 .1-1.4s.1-.7.2-.9l.3-.6.3-.3c.1-.1.2-.1.2-.2.1-.1.1-.1.2-.1s.2 0 .2.1c.1.1.1.1.2.1s.1 0 .2-.1.2-.1.3-.2.2-.2.3-.2c.1-.1.2-.1.3-.1s.1 0 .2.1.1.2.1.4v.5c0 .2-.1.3-.1.6 0 .2-.1.5-.1.8v1.2c0 1.5.2 2.9.5 4.1.3 1.3.7 2.3 1.3 3.1.1-.2.3-.4.4-.7.2-.3.3-.6.5-.9.2-.4.3-.8.5-1.3s.3-1 .4-1.7c-.2-.3-.5-.5-.7-.9-.2-.3-.4-.7-.6-1.1s-.3-.7-.4-1.1-.1-.7-.1-1.1.1-.8.2-1.2.3-.7.5-1 .4-.5.7-.6.5-.2.9-.2c.7 0 1.3.3 1.8 1s.7 1.6.7 2.7c0 .7-.1 1.3-.2 1.9s-.3 1.2-.5 1.8c.2.1.5.1.7.1.5 0 .9-.1 1.3-.4s.7-.7.9-1.2c.1-.3.3-.5.5-.5.1 0 .2 0 .2.1.1.1.1.1.1.2-.3.1-.3.2-.3.4zm-6.6-3c0 .4.1.9.2 1.4.2.5.4 1 .7 1.4 0-.3 0-.5.1-.8v-.9c0-.7 0-1.2-.1-1.7-.1-.4-.2-.7-.4-.6-.1 0-.2 0-.3.1s-.1.2-.1.3-.1.3-.1.4v.4zm-12.4 2.4c.1 0 .1 0 .2.1s.1.1.1.3c0 .1 0 .1-.1.3-.3 1-.7 2-1 2.8s-.6 1.5-.9 2.1c-.3.7-.7 1.2-1.1 1.7s-1 .6-1.7.6c-.3 0-.6 0-.8-.1-.3-.1-.5-.3-.7-.5-.2-.3-.4-.6-.6-1.1-.2-.4-.3-1-.4-1.7-.2.4-.4.8-.7 1.3-.3.4-.5.8-.9 1.1-.3.3-.7.6-1 .8-.4.2-.8.3-1.3.3-.3 0-.7-.1-1-.3s-.6-.5-.8-.9-.4-.9-.5-1.4-.2-1.1-.2-1.8.1-1.4.2-2.1.3-1.3.5-1.9.5-1.2.8-1.7.7-1 1.1-1.4c.7-.7 1.3-1.1 1.9-1.5.6-.3 1.2-.5 1.6-.5h.4c.1-.6.1-1.3.2-2s.1-1.5.2-2.3c.1-1 .2-1.9.4-2.6.1-.7.2-1.3.3-1.8s.2-.9.3-1.3.2-.7.4-1c.1-.2.2-.4.3-.5s.2-.3.4-.4c.1-.1.3-.2.4-.3.2-.1.3-.3.5-.5.3-.3.6-.6.8-.7s.4-.2.5-.2.3 0 .4.1.1.2.1.4v.2c0 .1 0 .2-.1.3-.1.2-.1.5-.3 1-.1.5-.3 1.1-.4 1.8s-.3 1.5-.5 2.4-.3 1.8-.4 2.8c-.1 1.1-.3 2.2-.4 3.3s-.2 2.2-.3 3.2-.1 2-.2 2.9c0 .9-.1 1.7-.1 2.4v1.3c0 .4.1.7.2 1s.2.5.3.7.3.2.5.2.4-.1.6-.3.4-.5.6-.9.4-.8.6-1.4c.2-.5.5-1.2.8-1.9.4-.3.6-.4.8-.4zm-7.1-3.1c0-.6-.2-.9-.7-.9-.4 0-.7.1-1.1.4-.3.3-.6.6-.9 1.1s-.5 1-.6 1.7-.2 1.4-.2 2.2c0 .9.1 1.6.4 2.1s.7.8 1.3.8c.3 0 .6-.1.8-.3s.4-.4.5-.7l.3-.9c.1-.3.1-.7.1-1v-3.7c0-.3.1-.6.1-.8zm-5.1 3.1c.1 0 .1 0 .2.1s.1.1.1.2 0 .2-.1.3c-.3.8-.5 1.5-.8 2.1s-.5 1.2-.7 1.8c-.2.5-.4 1-.6 1.3-.2.4-.4.7-.6.9-.2.3-.4.5-.6.6-.2.2-.4.3-.6.3-.2.1-.4.1-.7.1s-.6-.1-.9-.2-.7-.4-1-.7c-.3-.4-.5-.9-.7-1.5s-.3-1.5-.3-2.5v-1.4c0-.7.1-1.5.1-2.4.1-.9.1-2 .2-3.2s.2-2.4.3-3.7c.1-.8.1-1.7.2-2.6.1-1 .2-1.9.3-2.8s.2-1.7.3-2.5.2-1.4.3-1.8c.1-.5.3-.8.5-1.1.3-.3.6-.5.9-.9l.4-.4.4-.4c.1-.1.3-.2.4-.3s.2-.1.4-.1.3.1.3.3c0 .1 0 .4-.1.8s-.2 1-.3 1.8-.3 2-.4 3.4c-.1 1.5-.3 3.3-.5 5.6 0 .4-.1 1-.1 1.6-.1.6-.1 1.3-.2 2s-.1 1.4-.1 2.1-.1 1.4-.1 2-.1 1.2-.1 1.8v1.3c0 .9.1 1.6.3 2.1s.5.8 1 .8c.3 0 .5-.1.7-.3s.4-.5.6-.9.4-.8.6-1.4c.2-.5.4-1.1.7-1.7.1-.2.1-.3.2-.4-.1-.1 0-.1.1-.1zm-6.9 0c.1 0 .1 0 .2.1s.1.1.1.2 0 .2-.1.3c-.2.6-.4 1.1-.6 1.6s-.4.9-.6 1.3-.5.8-.7 1.2l-.9 1.2s-.7.7-1.1 1-.8.5-1.3.7-.9.3-1.5.3c-.4 0-.8-.1-1.3-.2s-.9-.4-1.3-.7c-.4-.4-.7-.8-1-1.5-.3-.6-.4-1.4-.4-2.4 0-.4 0-.9.1-1.4s.2-.9.4-1.3.3-.8.5-1.2.4-.7.6-1c.3-.5.7-.9 1.1-1.3s.8-.8 1.2-1.1.8-.6 1.1-.7.7-.3 1-.3c.5 0 .9.2 1.3.6s.6.9.6 1.6c0 .6-.2 1.3-.5 1.9-.3.7-.7 1.3-1.2 1.9l-1.5 1.8c-.5.5-1 1-1.5 1.3.2.6.5 1 .9 1.3s.7.4 1.1.4c.6 0 1.1-.2 1.6-.6s.9-.9 1.3-1.4.7-1.1 1-1.7.5-1.1.8-1.6c.1-.2.2-.3.2-.4.1.1.2.1.4.1zm-7.7.9c0 .8.1 1.5.2 2.1.3-.3.5-.6.8-.9s.5-.7.7-1c.2-.4.4-.7.5-1.1s.2-.7.2-1.1c0-.5-.1-.9-.3-1.2s-.4-.4-.7-.4c-.1 0-.3.1-.4.2s-.3.4-.5.7-.3.7-.4 1.2c-.1.4-.1.9-.1 1.5zm-1.4-.3c-.3 1-.6 2-.9 2.8-.3.9-.7 1.6-1 2.3-.4.6-.7 1.1-1.2 1.5s-.9.5-1.5.5c-.7 0-1.2-.3-1.6-1s-.6-1.5-.6-2.6c0-.5 0-.9.1-1.3s.1-.8.2-1.2.1-.8.2-1.1c0-.4.1-.7.1-1.1s0-.6-.1-.8c-.1-.1-.2-.2-.4-.2h-.5c-.1 0-.3 0-.6.1-.1.3-.3.6-.4.8s-.2.4-.2.6-.2.2-.3.3c0 .1-.1.2-.1.3-.1.3-.2.4-.3.5s-.1.1-.3.1c-.1 0-.1 0-.2-.1v-.3c0-.1 0-.2.1-.3s.1-.3.1-.4c.1-.2.1-.4.2-.7s.1-.6.2-1c-.3-.1-.5-.4-.7-.8s-.3-1-.3-1.6c0-.5.1-1 .2-1.5.2-.5.4-1 .6-1.4s.5-.8.8-1c.3-.3.5-.4.8-.4s.5.2.7.5.3.7.3 1.2c0 .2 0 .5-.1.7s-.1.5-.2.7-.1.4-.2.6-.1.3-.1.4 0 .2.1.2.2 0 .4-.1l1-.4c.4-.1.7-.2.9-.2.4 0 .7.1.8.4s.2.7.2 1.2c0 .2 0 .6-.1 1.2s-.1 1.2-.2 1.9-.1 1.4-.2 2c0 .7-.1 1.2-.1 1.6 0 .5 0 .8.1 1s.3.3.6.3c.2 0 .5-.1.7-.4s.5-.6.7-1 .4-.9.6-1.4.4-1 .5-1.4c.1-.3.3-.5.5-.5s.3.1.3.4v.1c.4-.1.4-.1.4 0zm-9.1-.6c.1 0 .1 0 .2.1s.1.1.1.2 0 .2-.1.3c-.2.6-.4 1.1-.6 1.6s-.4.9-.6 1.3-.5.8-.7 1.2l-.9 1.2s-.7.7-1.1 1-.8.5-1.3.7-.9.3-1.5.3c-.4 0-.8-.1-1.3-.2s-.9-.4-1.3-.7c-.4-.4-.7-.8-1-1.5-.3-.6-.4-1.4-.4-2.4 0-.4 0-.9.1-1.4s.2-.9.4-1.3.3-.8.5-1.2.4-.7.6-1c.3-.5.7-.9 1.1-1.3s.8-.8 1.2-1.1.8-.6 1.1-.7.7-.3 1-.3c.5 0 .9.2 1.3.6s.6.9.6 1.6c0 .6-.2 1.3-.5 1.9-.3.7-.7 1.3-1.2 1.9l-1.5 1.8c-.5.5-1 1-1.5 1.3.2.6.5 1 .9 1.3s.7.4 1.1.4c.6 0 1.1-.2 1.6-.6s.9-.9 1.3-1.4.7-1.1 1-1.7.5-1.1.8-1.6c.1-.2.2-.3.2-.4.2.1.3.1.4.1zm-7.7.9c0 .8.1 1.5.2 2.1.3-.3.5-.6.8-.9s.5-.7.7-1c.2-.4.4-.7.5-1.1s.2-.7.2-1.1c0-.5-.1-.9-.3-1.2s-.4-.4-.7-.4c-.1 0-.3.1-.4.2s-.3.4-.5.7-.3.7-.4 1.2c-.1.4-.1.9-.1 1.5zm-1.4-.3c-.3.8-.7 1.4-1.2 1.8s-1.1.6-1.8.6c-.3 0-.7 0-1-.1-.3.7-.7 1.4-1.1 2s-.9 1.1-1.4 1.6c-.5.4-.9.8-1.4 1s-.9.4-1.3.4c-.2 0-.3 0-.5-.1s-.3-.2-.4-.4-.3-.4-.5-.8c-.2-.3-.4-.7-.5-1.2-.6.8-1.3 1.4-1.9 1.9-.7.5-1.3.7-1.8.7-.2 0-.3 0-.5-.1s-.3-.2-.4-.4c-.2-.2-.4-.6-.6-1s-.5-1-.7-1.6c-.2-.7-.4-1.4-.6-2.3s-.2-1.9-.2-3.1c0-.5 0-1 .1-1.4s.1-.7.2-.9l.3-.6.3-.3c.1-.1.2-.1.2-.2.1-.1.1-.1.2-.1s.2 0 .2.1.1.1.2.1.1 0 .2-.1.2-.1.3-.2.2-.2.3-.2c.1-.1.2-.1.3-.1s.1 0 .2.1.1.2.1.4v.5c0 .2-.1.3-.1.6s-.1.5-.1.8v1.2c0 1.5.2 2.9.5 4.1.3 1.3.7 2.3 1.3 3.1.2-.3.5-.7.7-1.2s.5-1.1.7-1.9l-.3-1.8c-.1-.6-.1-1.4-.1-2.1 0-.5 0-1 .1-1.4s.1-.7.2-.9l.3-.6.3-.3c.1-.1.2-.1.2-.2.1-.1.1-.1.2-.1s.2 0 .2.1.1.1.2.1.1 0 .2-.1.2-.1.3-.2.2-.2.3-.2c.1-.1.2-.1.3-.1s.1 0 .2.1.1.2.1.4v.5c0 .2-.1.3-.1.6 0 .2-.1.5-.1.8v1.2c0 1.5.2 2.9.5 4.1.3 1.3.7 2.3 1.3 3.1.1-.2.3-.4.4-.7.2-.3.3-.6.5-.9.2-.4.3-.8.5-1.3.1-.5.3-1 .4-1.7-.2-.3-.5-.5-.7-.9-.2-.3-.4-.7-.6-1.1s-.3-.7-.4-1.1-.1-.7-.1-1.1.1-.8.2-1.2.3-.7.5-1 .4-.5.7-.6c.3-.2.5-.2.9-.2.7 0 1.3.3 1.8 1s.7 1.6.7 2.7c0 .7-.1 1.3-.2 1.9s-.3 1.2-.5 1.8c-.1.2.1.2.4.2.5 0 .9-.1 1.3-.4s.7-.7.9-1.2c.1-.3.3-.5.5-.5.1 0 .2 0 .2.1.1.1.1.1.1.2 0 0-.1.1-.1.3zm-6.6-3c0 .4.1.9.2 1.4.2.5.4 1 .7 1.4 0-.3 0-.5.1-.8s0-.6 0-.9c0-.7 0-1.2-.1-1.7-.1-.4-.2-.7-.4-.6-.1 0-.2 0-.3.1s-.1.2-.1.3-.1.3-.1.4v.4zm-18 2.4c.1 0 .1 0 .2.1s.1.1.1.2 0 .2-.1.3c-.2.6-.4 1.1-.6 1.6s-.4.9-.6 1.3-.5.8-.7 1.2l-.9 1.2s-.7.7-1.1 1-.8.5-1.3.7-.9.3-1.5.3c-.4 0-.8-.1-1.3-.2s-.9-.4-1.3-.7c-.4-.4-.7-.8-1-1.5-.3-.6-.4-1.4-.4-2.4 0-.4 0-.9.1-1.4s.2-.9.4-1.3.3-.8.5-1.2.4-.7.6-1c.3-.5.7-.9 1.1-1.3s.8-.8 1.2-1.1.8-.6 1.1-.7.7-.3 1-.3c.5 0 .9.2 1.3.6s.6.9.6 1.6c0 .6-.2 1.3-.5 1.9-.3.7-.7 1.3-1.2 1.9L29 24.3c-.5.5-1 1-1.5 1.3.2.6.5 1 .9 1.3s.7.4 1.1.4c.6 0 1.1-.2 1.6-.6s.9-.9 1.3-1.4.7-1.1 1-1.7.5-1.1.8-1.6c.1-.2.2-.3.2-.4.2.1.3.1.4.1zm-7.7.9c0 .8.1 1.5.2 2.1.3-.3.5-.6.8-.9s.5-.7.7-1c.2-.4.4-.7.5-1.1s.2-.7.2-1.1c0-.5-.1-.9-.3-1.2s-.4-.4-.7-.4c-.1 0-.3.1-.4.2s-.3.4-.5.7-.3.7-.4 1.2c0 .4-.1.9-.1 1.5zm-3.2-6.7c0 1.8-.2 3.5-.5 5s-.7 2.8-1.3 4c-.5 1.2-1.2 2.2-1.9 3-.7.9-1.4 1.6-2.2 2.1s-1.6 1-2.3 1.2c-.8.3-1.5.4-2.3.4-.5 0-1.1-.1-1.6-.3s-.9-.5-1.3-.8c-.4-.4-.7-.8-.9-1.3s-.3-1.1-.3-1.7c0-.3 0-.4.1-.6.2-.1.3-.1.4-.1s.3.1.4.4c.3.8.7 1.4 1.2 1.8s1.2.6 1.9.6c1 0 1.9-.3 2.7-1s1.5-1.6 2.1-2.9 1-2.8 1.3-4.7.5-4 .5-6.3c0-1.5-.2-3-.5-4.3S18.5 8 17.8 7c-.7-.9-1.6-1.7-2.7-2.2S12.7 4 11.2 4c-.9 0-1.9.1-2.8.4-1 .2-1.8.6-2.6 1.1S4.3 6.6 3.9 7.4c-.5.7-.8 1.6-.8 2.7 0 .6.1 1.1.2 1.7.2.5.3 1 .6 1.5.2.4.4.8.6 1.1s.4.5.4.7c.1.2.2.3.2.5 0 .1 0 .2-.1.3s-.2.1-.5.1h-.4c-.3 0-.6-.2-1.1-.4s-.9-.6-1.4-1-.9-1-1.2-1.7c-.2-.8-.4-1.6-.4-2.5 0-.6.1-1.3.3-2s.5-1.4 1-2.1c.4-.7 1-1.4 1.6-2.1S4.3 3 5.1 2.4C6 2 7 1.6 8 1.3 9.1 1 10.2.8 11.5.8c1.8 0 3.4.3 4.8.8 1.3.5 2.4 1.2 3.4 2.1.9.9 1.7 1.8 2.2 2.9s1 2.2 1.3 3.3.5 2.2.6 3.2c.1 1.1.1 2 .1 2.8zM9 7.3c.1-.3.3-.5.6-.7.2-.2.5-.3.8-.3.1 0 .2 0 .4.1s.2.2.2.3V7c0 .1 0 .2-.1.3-.2 1.1-.4 2.3-.6 3.4-.2 1.2-.3 2.3-.5 3.4s-.2 2.2-.3 3.2-.2 2-.2 2.9-.1 1.7-.1 2.3v7c-.1.3-.1.3-.2.4s-.1.1-.2.1c-.2 0-.3 0-.5-.1s-.3-.1-.4-.2-.3-.2-.4-.2c-.1-.1-.2-.1-.4-.1-.1 0-.3 0-.4.1s-.2.1-.3.1c-.2 0-.3 0-.4-.1s-.2-.2-.2-.3-.1-.2-.1-.4v-2.6c0-1 .1-2.1.1-3.4 0-.8.1-1.6.1-2.5.1-.9.1-1.8.2-2.6.1-.9.2-1.7.2-2.5.1-.8.2-1.6.2-2.3.1-.7.1-1.3.2-1.7.1-.5.1-.8.1-1 .4-.5.5-1 .6-1.4s.2-.7.3-.8c.1-.2.2-.3.4-.4.1-.1.2-.2.4-.2.1-.1.3-.1.5-.1zm-.7 36.6s2.6-.4 7.2-1.2c2.3-.4 5.1-.7 8.2-1.2 1.6-.2 3.3-.5 5.1-.7s3.7-.4 5.6-.6c2-.2 4-.4 6.1-.6s4.3-.4 6.6-.5c1.1-.1 2.3-.2 3.4-.3 1.2-.1 2.3-.1 3.5-.2 2.4-.1 4.8-.2 7.3-.4 4.9-.2 10-.4 15.2-.6 2.6-.1 5.2-.3 7.8-.3 2.6-.1 5.3-.2 7.9-.3 5.3-.2 10.5-.4 15.7-.4 5.2-.1 10.3 0 15.2 0 2.5 0 4.9.1 7.3.2s4.7.1 7 .3c2.3.1 4.5.2 6.6.3s4.2.3 6.2.4 3.9.3 5.7.4c1.8.2 3.5.3 5.1.5 3.2.3 6 .5 8.3.8 4.6.5 7.2.8 7.2.8v.1s-2.6-.2-7.2-.4c-2.3-.1-5.1-.3-8.3-.5s-6.8-.4-10.8-.5c-3.9-.2-8.2-.3-12.7-.5s-9.3-.3-14.2-.4-10-.2-15.2-.3-10.4 0-15.7-.1c-2.6 0-5.3.1-7.9.1s-5.2.2-7.8.3c-5.2.2-10.3.6-15.2 1-9.8.9-19 1.7-26.9 2.4-3.9.4-7.5.7-10.7 1s-6 .6-8.3.8c-4.6.5-7.3.7-7.3.7z"/></svg>
